0
SECTION
2
HEADER
9
$ACADVER
1
AC1009
0
ENDSEC
0
SECTION
2
TABLES
0
ENDSEC
0
SECTION
2
BLOCKS
0
ENDSEC
0
SECTION
2
ENTITIES
0
LWPOLYLINE
8
0
90
4
70
1
10
-40.0
20
-50.0
10
40.0
20
-50.0
10
40.0
20
50.0
10
-40.0
20
50.0
0
LWPOLYLINE
8
0
90
4
70
1
10
-25.0
20
-32.5
10
25.0
20
-32.5
10
25.0
20
32.5
10
-25.0
20
32.5
0
LWPOLYLINE
8
0
90
4
70
1
10
-15.0
20
-32.5
10
15.0
20
-32.5
10
15.0
20
-37.5
10
-15.0
20
-37.5
0
CIRCLE
8
0
10
-35.0
20
45.0
40
1.6
0
CIRCLE
8
0
10
35.0
20
45.0
40
1.6
0
CIRCLE
8
0
10
-35.0
20
-45.0
40
1.6
0
CIRCLE
8
0
10
35.0
20
-45.0
40
1.6
0
ENDSEC
0
EOF